<mxfile host="app.diagrams.net" modified="2023-09-30T07:05:24.535Z" agent="Mozilla/5.0 (Windows NT 10.0; Win64; x64) AppleWebKit/537.36 (KHTML, like Gecko) Chrome/117.0.0.0 Safari/537.36 Edg/117.0.2045.43" etag="9dy5AhaNKOUSUwNjPXYx" version="22.0.0" type="device">
  <diagram name="Страница — 1" id="5M9NT873djbVs7FbnrBm">
    <mxGraphModel dx="1631" dy="1074" grid="0" gridSize="10" guides="1" tooltips="1" connect="1" arrows="1" fold="1" page="0" pageScale="1" pageWidth="827" pageHeight="1169" math="0" shadow="0">
      <root>
        <mxCell id="0" />
        <mxCell id="1" parent="0" />
        <mxCell id="bMvL6_cTQwy3OwgKOuDT-1" value="&lt;div style=&quot;text-align: center; font-size: 14px;&quot;&gt;&lt;span style=&quot;background-color: initial;&quot;&gt;&lt;font style=&quot;font-size: 14px;&quot;&gt;&lt;b&gt;Главная&amp;nbsp;&lt;/b&gt;&lt;/font&gt;&lt;/span&gt;&lt;/div&gt;&lt;div style=&quot;text-align: center; font-size: 14px;&quot;&gt;&lt;span style=&quot;background-color: initial;&quot;&gt;&lt;font style=&quot;font-size: 14px;&quot;&gt;&lt;b&gt;страница&lt;/b&gt;&lt;/font&gt;&lt;/span&gt;&lt;/div&gt;&lt;br&gt;&lt;ul&gt;&lt;li&gt;Меню&lt;/li&gt;&lt;li&gt;Поиск автомобилей&lt;/li&gt;&lt;li&gt;Слайдер с объявлениями&lt;/li&gt;&lt;/ul&gt;" style="rounded=0;whiteSpace=wrap;html=1;align=left;" vertex="1" parent="1">
          <mxGeometry x="505" y="20" width="180" height="140" as="geometry" />
        </mxCell>
        <mxCell id="bMvL6_cTQwy3OwgKOuDT-2" value="" style="endArrow=none;html=1;rounded=0;entryX=0.5;entryY=1;entryDx=0;entryDy=0;" edge="1" parent="1" target="bMvL6_cTQwy3OwgKOuDT-1">
          <mxGeometry width="50" height="50" relative="1" as="geometry">
            <mxPoint x="595" y="210" as="sourcePoint" />
            <mxPoint x="430" y="220" as="targetPoint" />
          </mxGeometry>
        </mxCell>
        <mxCell id="bMvL6_cTQwy3OwgKOuDT-3" value="&lt;b&gt;Категории&lt;/b&gt;&lt;br&gt;&lt;br&gt;&lt;div style=&quot;text-align: left;&quot;&gt;&lt;ul&gt;&lt;li&gt;&lt;span style=&quot;background-color: initial;&quot;&gt;Легковые автомобили&lt;/span&gt;&lt;/li&gt;&lt;li&gt;&lt;span style=&quot;background-color: initial;&quot;&gt;Грузовые и коммерческий&lt;/span&gt;&lt;/li&gt;&lt;li&gt;&lt;span style=&quot;background-color: initial;&quot;&gt;Мотоциклы и скутеры&lt;/span&gt;&lt;/li&gt;&lt;li&gt;&lt;span style=&quot;background-color: initial;&quot;&gt;Запчасти и аксессуары&lt;/span&gt;&lt;/li&gt;&lt;/ul&gt;&lt;/div&gt;" style="rounded=0;whiteSpace=wrap;html=1;" vertex="1" parent="1">
          <mxGeometry x="10" y="230" width="150" height="200" as="geometry" />
        </mxCell>
        <mxCell id="bMvL6_cTQwy3OwgKOuDT-4" value="&lt;b&gt;Страница категорий&lt;/b&gt;&lt;br&gt;&lt;br&gt;&lt;div style=&quot;text-align: left;&quot;&gt;&lt;ul&gt;&lt;li&gt;Список автомобилей в категории&lt;/li&gt;&lt;li&gt;Фильтры&lt;/li&gt;&lt;/ul&gt;&lt;/div&gt;&lt;br&gt;&lt;div style=&quot;text-align: left;&quot;&gt;&lt;br&gt;&lt;/div&gt;" style="rounded=0;whiteSpace=wrap;html=1;" vertex="1" parent="1">
          <mxGeometry x="170" y="230" width="150" height="200" as="geometry" />
        </mxCell>
        <mxCell id="bMvL6_cTQwy3OwgKOuDT-5" value="&lt;b&gt;Страница объявления&lt;/b&gt;&lt;br&gt;&lt;br&gt;&lt;div style=&quot;text-align: left;&quot;&gt;&lt;ul&gt;&lt;li&gt;Фотография&lt;/li&gt;&lt;li&gt;Описание и характеристики&lt;/li&gt;&lt;li&gt;Цена и контакты продавца&lt;/li&gt;&lt;li&gt;Кнопки связи с продавцом&lt;/li&gt;&lt;/ul&gt;&lt;/div&gt;" style="rounded=0;whiteSpace=wrap;html=1;" vertex="1" parent="1">
          <mxGeometry x="333.5" y="230" width="160" height="200" as="geometry" />
        </mxCell>
        <mxCell id="bMvL6_cTQwy3OwgKOuDT-6" value="&lt;b&gt;Личный кабинет&lt;/b&gt;&lt;br&gt;&lt;br&gt;&lt;div style=&quot;text-align: left;&quot;&gt;&lt;ul&gt;&lt;li&gt;Контактная информация&lt;/li&gt;&lt;li&gt;Размещенные объявления&lt;/li&gt;&lt;li&gt;Кнопка создания объявления&lt;/li&gt;&lt;li&gt;Изменение информации продавца и объявлений&lt;/li&gt;&lt;/ul&gt;&lt;/div&gt;" style="rounded=0;whiteSpace=wrap;html=1;" vertex="1" parent="1">
          <mxGeometry x="510" y="450" width="170" height="230" as="geometry" />
        </mxCell>
        <mxCell id="bMvL6_cTQwy3OwgKOuDT-7" value="&lt;b&gt;Регистрация / Вход&lt;/b&gt;&lt;br&gt;&lt;br&gt;&lt;ul style=&quot;&quot;&gt;&lt;li style=&quot;text-align: left;&quot;&gt;Поля логина и пароля&lt;/li&gt;&lt;li style=&quot;text-align: left;&quot;&gt;Кнопка входа&lt;/li&gt;&lt;li style=&quot;text-align: left;&quot;&gt;Кнопка восстановления пароля&lt;/li&gt;&lt;li style=&quot;text-align: left;&quot;&gt;Кнопка регистрации&lt;/li&gt;&lt;/ul&gt;" style="rounded=0;whiteSpace=wrap;html=1;" vertex="1" parent="1">
          <mxGeometry x="510" y="230" width="170" height="200" as="geometry" />
        </mxCell>
        <mxCell id="bMvL6_cTQwy3OwgKOuDT-8" value="&lt;b&gt;О нас&lt;/b&gt;&lt;br&gt;&lt;br&gt;&lt;div style=&quot;&quot;&gt;&lt;ul&gt;&lt;li style=&quot;text-align: left;&quot;&gt;Информация о компании&lt;/li&gt;&lt;li style=&quot;text-align: left;&quot;&gt;Миссия и ценности&lt;/li&gt;&lt;li style=&quot;text-align: left;&quot;&gt;Контактная информация&lt;/li&gt;&lt;li style=&quot;text-align: left;&quot;&gt;Форма обратной связи&lt;/li&gt;&lt;/ul&gt;&lt;/div&gt;" style="rounded=0;whiteSpace=wrap;html=1;" vertex="1" parent="1">
          <mxGeometry x="860" y="230" width="160" height="200" as="geometry" />
        </mxCell>
        <mxCell id="bMvL6_cTQwy3OwgKOuDT-9" value="&lt;b&gt;Полезная информация&lt;/b&gt;&lt;br&gt;&lt;br&gt;&lt;div style=&quot;text-align: left;&quot;&gt;&lt;ul&gt;&lt;li&gt;Статьи и советы по выбору и обслуживанию автомобилей&lt;/li&gt;&lt;/ul&gt;&lt;/div&gt;" style="rounded=0;whiteSpace=wrap;html=1;" vertex="1" parent="1">
          <mxGeometry x="690" y="230" width="160" height="200" as="geometry" />
        </mxCell>
        <mxCell id="bMvL6_cTQwy3OwgKOuDT-10" value="&lt;b&gt;Часто задаваемые вопросы (FAQ)&lt;/b&gt;&lt;br&gt;&lt;br&gt;&lt;ul style=&quot;&quot;&gt;&lt;li style=&quot;text-align: left;&quot;&gt;Ответы на распространенные вопросы пользователей&lt;/li&gt;&lt;/ul&gt;" style="rounded=0;whiteSpace=wrap;html=1;" vertex="1" parent="1">
          <mxGeometry x="1030" y="230" width="160" height="200" as="geometry" />
        </mxCell>
        <mxCell id="bMvL6_cTQwy3OwgKOuDT-11" value="" style="endArrow=none;html=1;rounded=0;" edge="1" parent="1">
          <mxGeometry width="50" height="50" relative="1" as="geometry">
            <mxPoint x="80" y="200" as="sourcePoint" />
            <mxPoint x="1110" y="200" as="targetPoint" />
          </mxGeometry>
        </mxCell>
        <mxCell id="bMvL6_cTQwy3OwgKOuDT-12" value="" style="endArrow=classic;html=1;rounded=0;entryX=0.46;entryY=0.017;entryDx=0;entryDy=0;entryPerimeter=0;" edge="1" parent="1" target="bMvL6_cTQwy3OwgKOuDT-3">
          <mxGeometry width="50" height="50" relative="1" as="geometry">
            <mxPoint x="80" y="200" as="sourcePoint" />
            <mxPoint x="440" y="440" as="targetPoint" />
          </mxGeometry>
        </mxCell>
        <mxCell id="bMvL6_cTQwy3OwgKOuDT-13" value="" style="endArrow=classic;html=1;rounded=0;entryX=0.5;entryY=0;entryDx=0;entryDy=0;" edge="1" parent="1" target="bMvL6_cTQwy3OwgKOuDT-4">
          <mxGeometry width="50" height="50" relative="1" as="geometry">
            <mxPoint x="245" y="200" as="sourcePoint" />
            <mxPoint x="440" y="440" as="targetPoint" />
          </mxGeometry>
        </mxCell>
        <mxCell id="bMvL6_cTQwy3OwgKOuDT-14" value="" style="endArrow=classic;html=1;rounded=0;entryX=0.5;entryY=0;entryDx=0;entryDy=0;" edge="1" parent="1" target="bMvL6_cTQwy3OwgKOuDT-10">
          <mxGeometry width="50" height="50" relative="1" as="geometry">
            <mxPoint x="1110" y="200" as="sourcePoint" />
            <mxPoint x="840" y="200" as="targetPoint" />
          </mxGeometry>
        </mxCell>
        <mxCell id="bMvL6_cTQwy3OwgKOuDT-15" value="" style="endArrow=classic;html=1;rounded=0;entryX=0.5;entryY=0;entryDx=0;entryDy=0;exitX=0.5;exitY=1;exitDx=0;exitDy=0;" edge="1" parent="1" source="bMvL6_cTQwy3OwgKOuDT-7" target="bMvL6_cTQwy3OwgKOuDT-6">
          <mxGeometry width="50" height="50" relative="1" as="geometry">
            <mxPoint x="390" y="490" as="sourcePoint" />
            <mxPoint x="440" y="440" as="targetPoint" />
          </mxGeometry>
        </mxCell>
        <mxCell id="bMvL6_cTQwy3OwgKOuDT-16" value="" style="endArrow=classic;html=1;rounded=0;entryX=0.5;entryY=0;entryDx=0;entryDy=0;" edge="1" parent="1" target="bMvL6_cTQwy3OwgKOuDT-8">
          <mxGeometry width="50" height="50" relative="1" as="geometry">
            <mxPoint x="940" y="200" as="sourcePoint" />
            <mxPoint x="440" y="440" as="targetPoint" />
          </mxGeometry>
        </mxCell>
        <mxCell id="bMvL6_cTQwy3OwgKOuDT-17" value="" style="endArrow=classic;html=1;rounded=0;" edge="1" parent="1" target="bMvL6_cTQwy3OwgKOuDT-9">
          <mxGeometry width="50" height="50" relative="1" as="geometry">
            <mxPoint x="770" y="200" as="sourcePoint" />
            <mxPoint x="440" y="440" as="targetPoint" />
          </mxGeometry>
        </mxCell>
        <mxCell id="bMvL6_cTQwy3OwgKOuDT-18" value="" style="endArrow=classic;html=1;rounded=0;entryX=0.5;entryY=0;entryDx=0;entryDy=0;" edge="1" parent="1" target="bMvL6_cTQwy3OwgKOuDT-7">
          <mxGeometry width="50" height="50" relative="1" as="geometry">
            <mxPoint x="595" y="200" as="sourcePoint" />
            <mxPoint x="450" y="230" as="targetPoint" />
          </mxGeometry>
        </mxCell>
        <mxCell id="bMvL6_cTQwy3OwgKOuDT-19" value="" style="endArrow=classic;html=1;rounded=0;entryX=0.5;entryY=0;entryDx=0;entryDy=0;" edge="1" parent="1" target="bMvL6_cTQwy3OwgKOuDT-5">
          <mxGeometry width="50" height="50" relative="1" as="geometry">
            <mxPoint x="414" y="200" as="sourcePoint" />
            <mxPoint x="440" y="440" as="targetPoint" />
          </mxGeometry>
        </mxCell>
      </root>
    </mxGraphModel>
  </diagram>
</mxfile>
